<mxfile host="app.diagrams.net" agent="Mozilla/5.0 (Macintosh; Intel Mac OS X 10_15_7) AppleWebKit/537.36 (KHTML, like Gecko) Chrome/131.0.0.0 Safari/537.36" version="25.0.3">
  <diagram name="Page-1" id="zTlZs2GxAq_3RxLiphwF">
    <mxGraphModel dx="1026" dy="650" grid="1" gridSize="10" guides="1" tooltips="1" connect="1" arrows="1" fold="1" page="1" pageScale="1" pageWidth="850" pageHeight="1100" math="0" shadow="0">
      <root>
        <mxCell id="0" />
        <mxCell id="1" parent="0" />
        <mxCell id="VP3t1Jy4HVFOqnoaixE9-37" value="" style="rounded=0;whiteSpace=wrap;html=1;" vertex="1" parent="1">
          <mxGeometry x="180" y="427.5" width="500" height="55" as="geometry" />
        </mxCell>
        <mxCell id="VP3t1Jy4HVFOqnoaixE9-35" value="" style="rounded=0;whiteSpace=wrap;html=1;" vertex="1" parent="1">
          <mxGeometry x="180" y="220" width="500" height="120" as="geometry" />
        </mxCell>
        <mxCell id="dyR7_paAhkqjmsIOhDJc-9" value="调度层" style="text;html=1;align=center;verticalAlign=middle;resizable=0;points=[];autosize=1;strokeColor=none;fillColor=none;" parent="1" vertex="1">
          <mxGeometry x="80" y="370" width="60" height="30" as="geometry" />
        </mxCell>
        <mxCell id="dyR7_paAhkqjmsIOhDJc-10" value="存储层" style="text;html=1;align=center;verticalAlign=middle;resizable=0;points=[];autosize=1;strokeColor=none;fillColor=none;" parent="1" vertex="1">
          <mxGeometry x="80" y="500" width="60" height="30" as="geometry" />
        </mxCell>
        <mxCell id="dyR7_paAhkqjmsIOhDJc-11" value="引擎层" style="text;html=1;align=center;verticalAlign=middle;resizable=0;points=[];autosize=1;strokeColor=none;fillColor=none;" parent="1" vertex="1">
          <mxGeometry x="80" y="265" width="60" height="30" as="geometry" />
        </mxCell>
        <mxCell id="dyR7_paAhkqjmsIOhDJc-13" value="网关层" style="text;html=1;align=center;verticalAlign=middle;resizable=0;points=[];autosize=1;strokeColor=none;fillColor=none;" parent="1" vertex="1">
          <mxGeometry x="80" y="165" width="60" height="30" as="geometry" />
        </mxCell>
        <mxCell id="dyR7_paAhkqjmsIOhDJc-14" value="Unify&lt;div&gt;Catalog&lt;/div&gt;" style="rounded=1;whiteSpace=wrap;html=1;fillColor=#dae8fc;strokeColor=#6c8ebf;" parent="1" vertex="1">
          <mxGeometry x="690" y="150" width="80" height="390" as="geometry" />
        </mxCell>
        <mxCell id="dyR7_paAhkqjmsIOhDJc-18" value="应用层" style="text;html=1;align=center;verticalAlign=middle;resizable=0;points=[];autosize=1;strokeColor=none;fillColor=none;" parent="1" vertex="1">
          <mxGeometry x="80" y="80" width="60" height="30" as="geometry" />
        </mxCell>
        <mxCell id="VP3t1Jy4HVFOqnoaixE9-2" value="" style="rounded=0;whiteSpace=wrap;html=1;" vertex="1" parent="1">
          <mxGeometry x="180" y="50" width="280" height="80" as="geometry" />
        </mxCell>
        <mxCell id="VP3t1Jy4HVFOqnoaixE9-3" value="DataVerse" style="rounded=1;whiteSpace=wrap;html=1;" vertex="1" parent="1">
          <mxGeometry x="190" y="60" width="70" height="60" as="geometry" />
        </mxCell>
        <mxCell id="VP3t1Jy4HVFOqnoaixE9-16" value="Dor" style="rounded=1;whiteSpace=wrap;html=1;" vertex="1" parent="1">
          <mxGeometry x="285" y="60" width="70" height="60" as="geometry" />
        </mxCell>
        <mxCell id="VP3t1Jy4HVFOqnoaixE9-17" value="RedWin" style="rounded=1;whiteSpace=wrap;html=1;" vertex="1" parent="1">
          <mxGeometry x="380" y="60" width="70" height="60" as="geometry" />
        </mxCell>
        <mxCell id="VP3t1Jy4HVFOqnoaixE9-18" value="" style="rounded=0;whiteSpace=wrap;html=1;" vertex="1" parent="1">
          <mxGeometry x="490" y="50" width="280" height="80" as="geometry" />
        </mxCell>
        <mxCell id="VP3t1Jy4HVFOqnoaixE9-19" value="Larc" style="rounded=1;whiteSpace=wrap;html=1;" vertex="1" parent="1">
          <mxGeometry x="510" y="60" width="70" height="60" as="geometry" />
        </mxCell>
        <mxCell id="VP3t1Jy4HVFOqnoaixE9-20" value="AGI" style="rounded=1;whiteSpace=wrap;html=1;" vertex="1" parent="1">
          <mxGeometry x="600" y="60" width="70" height="60" as="geometry" />
        </mxCell>
        <mxCell id="VP3t1Jy4HVFOqnoaixE9-21" value="Lucky" style="rounded=1;whiteSpace=wrap;html=1;" vertex="1" parent="1">
          <mxGeometry x="690" y="60" width="70" height="60" as="geometry" />
        </mxCell>
        <mxCell id="dyR7_paAhkqjmsIOhDJc-1" value="" style="shape=cylinder3;whiteSpace=wrap;html=1;boundedLbl=1;backgroundOutline=1;size=15;" parent="1" vertex="1">
          <mxGeometry x="180" y="490" width="500" height="50" as="geometry" />
        </mxCell>
        <mxCell id="VP3t1Jy4HVFOqnoaixE9-28" value="格式层" style="text;html=1;align=center;verticalAlign=middle;resizable=0;points=[];autosize=1;strokeColor=none;fillColor=none;" vertex="1" parent="1">
          <mxGeometry x="80" y="440" width="60" height="30" as="geometry" />
        </mxCell>
        <mxCell id="VP3t1Jy4HVFOqnoaixE9-29" value="OSS / COS" style="text;html=1;align=center;verticalAlign=middle;whiteSpace=wrap;rounded=0;" vertex="1" parent="1">
          <mxGeometry x="367.5" y="490" width="125" height="30" as="geometry" />
        </mxCell>
        <mxCell id="VP3t1Jy4HVFOqnoaixE9-30" value="" style="rounded=0;whiteSpace=wrap;html=1;" vertex="1" parent="1">
          <mxGeometry x="180" y="350" width="500" height="70" as="geometry" />
        </mxCell>
        <mxCell id="dyR7_paAhkqjmsIOhDJc-3" value="Yarn" style="rounded=1;whiteSpace=wrap;html=1;" parent="1" vertex="1">
          <mxGeometry x="195" y="360" width="230" height="50" as="geometry" />
        </mxCell>
        <mxCell id="VP3t1Jy4HVFOqnoaixE9-32" value="Native Engine 加速层" style="rounded=1;whiteSpace=wrap;html=1;fillColor=#dae8fc;strokeColor=#6c8ebf;" vertex="1" parent="1">
          <mxGeometry x="195" y="290" width="475" height="40" as="geometry" />
        </mxCell>
        <mxCell id="VP3t1Jy4HVFOqnoaixE9-36" value="统一网关层" style="rounded=0;whiteSpace=wrap;html=1;fillColor=#dae8fc;strokeColor=#6c8ebf;" vertex="1" parent="1">
          <mxGeometry x="180" y="150" width="500" height="60" as="geometry" />
        </mxCell>
        <mxCell id="VP3t1Jy4HVFOqnoaixE9-38" value="K8S" style="rounded=1;whiteSpace=wrap;html=1;" vertex="1" parent="1">
          <mxGeometry x="440" y="360" width="230" height="50" as="geometry" />
        </mxCell>
        <mxCell id="VP3t1Jy4HVFOqnoaixE9-39" value="Iceberg" style="rounded=1;whiteSpace=wrap;html=1;" vertex="1" parent="1">
          <mxGeometry x="195" y="435" width="230" height="40" as="geometry" />
        </mxCell>
        <mxCell id="VP3t1Jy4HVFOqnoaixE9-40" value="Paimon" style="rounded=1;whiteSpace=wrap;html=1;" vertex="1" parent="1">
          <mxGeometry x="440" y="435" width="230" height="40" as="geometry" />
        </mxCell>
        <mxCell id="VP3t1Jy4HVFOqnoaixE9-41" value="Spark" style="rounded=1;whiteSpace=wrap;html=1;fillColor=#dae8fc;strokeColor=#6c8ebf;" vertex="1" parent="1">
          <mxGeometry x="195" y="230" width="230" height="50" as="geometry" />
        </mxCell>
        <mxCell id="VP3t1Jy4HVFOqnoaixE9-42" value="RSS" style="rounded=1;whiteSpace=wrap;html=1;fillColor=#dae8fc;strokeColor=#6c8ebf;" vertex="1" parent="1">
          <mxGeometry x="440" y="230" width="230" height="50" as="geometry" />
        </mxCell>
      </root>
    </mxGraphModel>
  </diagram>
</mxfile>
